<mxfile host="app.diagrams.net" modified="2023-04-24T04:56:05.447Z" agent="Mozilla/5.0 (Macintosh; Intel Mac OS X 10_15_7) AppleWebKit/537.36 (KHTML, like Gecko) Chrome/112.0.0.0 Safari/537.36" version="21.2.1" etag="t-TLZFzTyg8hwcTWzlxJ" type="github">
  <diagram name="페이지-1" id="qOHSWRhQ4eyLGV90wdd_">
    <mxGraphModel>
      <root>
        <mxCell id="0" />
        <mxCell id="1" parent="0" />
      </root>
    </mxGraphModel>
  </diagram>
</mxfile>
